<svg xmlns="http://www.w3.org/2000/svg" width="200" height="200" viewBox="0 0 200 200" fill="none">
  <g clip-path="url(#gr_clip)">
    <path d="M98.3781 131.812V102.022H70.3321C69.8955 107.155 67.6318 111.767 64.194 115.205C60.3538 119.045 55.0489 121.42 49.1893 121.42C43.3295 121.42 38.0244 119.045 34.1842 115.205C30.7464 111.767 28.4827 107.155 28.0463 102.022H0V189.88C0 195.69 4.70982 200.4 10.5197 200.4H98.3781V170.609C98.3781 169.603 99.1939 168.787 100.2 168.787C105.054 168.787 109.448 166.82 112.629 163.639C115.809 160.459 117.777 156.065 117.777 151.211C117.777 146.357 115.809 141.963 112.629 138.782C109.448 135.602 105.054 133.634 100.2 133.634C99.1941 133.634 98.3781 132.818 98.3781 131.812Z" fill="#00D8D5"/>
    <path d="M78.9997 50.1037C78.9918 49.9081 78.9894 49.8315 78.9873 49.7544L78.9867 49.728C78.9846 49.6453 78.9828 49.5626 78.9818 49.4797L78.9814 49.4369C78.9805 49.3545 78.9798 49.2718 78.9798 49.1891C78.9798 43.3294 81.3552 38.0242 85.1951 34.1841C88.6331 30.7461 93.2453 28.4824 98.3781 28.0461V0H10.5197C4.70982 0 0 4.70982 0 10.5197V98.3781H29.7906C30.7966 98.3781 31.6124 99.1939 31.6124 100.2C31.6124 105.054 33.5799 109.448 36.7604 112.629C39.941 115.809 44.3353 117.777 49.1893 117.777C54.043 117.777 58.4372 115.809 61.6179 112.629C64.7984 109.448 66.7658 105.054 66.7658 100.2C66.7658 99.1939 67.5816 98.3781 68.5877 98.3781H98.3781V70.332C93.2453 69.8956 88.6331 67.6318 85.1951 64.1939C81.7982 60.7969 79.5479 56.2534 79.0737 51.1937L79.0712 51.1688L79.0574 51.0121L79.044 50.8479L79.0352 50.7288L79.0287 50.6357L79.021 50.5187L79.0114 50.3537L78.9997 50.1037Z" fill="#FF4C8B"/>
    <path d="M102.022 0V29.7904C102.022 30.7965 101.206 31.6123 100.2 31.6123C95.3462 31.6123 90.9519 33.5798 87.7714 36.7602C84.5909 39.9409 82.6236 44.3352 82.6236 49.1891C82.6236 49.2595 82.6241 49.33 82.6249 49.4003L82.6253 49.4273L82.6292 49.6346L82.6299 49.6579C82.6336 49.8006 82.6388 49.943 82.6461 50.0849L82.6469 50.1007C82.8763 54.5918 84.7913 58.6375 87.7714 61.6177C90.9519 64.7982 95.3462 66.7657 100.2 66.7657C101.206 66.7657 102.022 67.5815 102.022 68.5876V98.3781H130.068C130.505 93.2453 132.768 88.6328 136.206 85.1951C140.046 81.3549 145.351 78.9797 151.211 78.9797C157.071 78.9797 162.376 81.3549 166.216 85.1951C169.654 88.6328 171.917 93.2453 172.354 98.3781H200.4V10.5197C200.4 4.70982 195.69 0 189.88 0H102.022Z" fill="#00D8D5"/>
    <path d="M200.401 102.022H170.61C169.604 102.022 168.788 101.206 168.788 100.2C168.788 95.3462 166.821 90.9518 163.64 87.7714C160.46 84.5908 156.065 82.6234 151.211 82.6234C146.358 82.6234 141.963 84.5908 138.783 87.7714C135.602 90.9518 133.635 95.3462 133.635 100.2C133.635 101.206 132.819 102.022 131.813 102.022H102.022V130.068C107.155 130.504 111.768 132.768 115.206 136.206C119.046 140.046 121.421 145.351 121.421 151.211C121.421 157.07 119.046 162.376 115.206 166.216C111.768 169.654 107.155 171.917 102.022 172.354V200.4H189.881C195.691 200.4 200.401 195.69 200.401 189.88V102.022Z" fill="#FF4C8B"/>
  </g>
  <defs>
    <clipPath id="gr_clip">
      <rect width="200" height="200" fill="white"/>
    </clipPath>
  </defs>
</svg>
